<svg width="12" height="13" viewBox="0 0 12 13" fill="none" xmlns="http://www.w3.org/2000/svg">
<path d="M3.75 0.5H2.25C1.85218 0.5 1.47064 0.658035 1.18934 0.93934C0.908035 1.22064 0.75 1.60218 0.75 2V11C0.75 11.3978 0.908035 11.7794 1.18934 12.0607C1.47064 12.342 1.85218 12.5 2.25 12.5H3.75C4.14782 12.5 4.52936 12.342 4.81066 12.0607C5.09196 11.7794 5.25 11.3978 5.25 11V2C5.25 1.60218 5.09196 1.22064 4.81066 0.93934C4.52936 0.658035 4.14782 0.5 3.75 0.5Z" fill="#646464"/>
<path d="M9.75 0.5H8.25C7.85218 0.5 7.47064 0.658035 7.18934 0.93934C6.90804 1.22064 6.75 1.60218 6.75 2V11C6.75 11.3978 6.90804 11.7794 7.18934 12.0607C7.47064 12.342 7.85218 12.5 8.25 12.5H9.75C10.1478 12.5 10.5294 12.342 10.8107 12.0607C11.092 11.7794 11.25 11.3978 11.25 11V2C11.25 1.60218 11.092 1.22064 10.8107 0.93934C10.5294 0.658035 10.1478 0.5 9.75 0.5Z" fill="#646464"/>
</svg>
