<svg width="12" height="15" viewBox="0 0 12 15" fill="none" xmlns="http://www.w3.org/2000/svg">
<path d="M0.5 1.49997V13.5C0.499962 13.6334 0.535531 13.7645 0.603036 13.8796C0.670541 13.9947 0.767538 14.0897 0.884018 14.1548C1.0005 14.2199 1.13225 14.2528 1.26566 14.25C1.39908 14.2472 1.52934 14.2089 1.643 14.139L11.393 8.13897C11.5022 8.07187 11.5924 7.9779 11.6549 7.86603C11.7175 7.75417 11.7503 7.62814 11.7503 7.49997C11.7503 7.3718 11.7175 7.24577 11.6549 7.1339C11.5924 7.02204 11.5022 6.92807 11.393 6.86097L1.643 0.860967C1.52934 0.791041 1.39908 0.752706 1.26566 0.749919C1.13225 0.747133 1.0005 0.779994 0.884018 0.845113C0.767538 0.910232 0.670541 1.00525 0.603036 1.12036C0.535531 1.23548 0.499962 1.36652 0.5 1.49997Z" fill="#2B5BD3"/>
</svg>
